<svg width="145" height="44" viewBox="0 0 145 44" fill="none" xmlns="http://www.w3.org/2000/svg">
<path d="M24.0505 21.9453C29.6207 11.7293 29.8774 7.60135 30.5 5C37.0076 9.3285 37.7322 17.8721 32.906 28.7726C26.3018 42.6206 19.2158 41.4967 17.6969 39.8957C14.4753 36.5 18.3927 33.7237 24.0505 21.9453Z" fill="#5F9968"/>
<path d="M55.36 29.16C53.96 29.16 52.6933 28.8533 51.56 28.24C50.44 27.6133 49.56 26.76 48.92 25.68C48.28 24.5867 47.96 23.36 47.96 22C47.96 20.64 48.28 19.42 48.92 18.34C49.56 17.2467 50.4467 16.3933 51.58 15.78C52.7133 15.1533 53.98 14.84 55.38 14.84C56.4733 14.84 57.4733 15.0267 58.38 15.4C59.2867 15.76 60.06 16.3 60.7 17.02L59.4 18.28C58.3467 17.1733 57.0333 16.62 55.46 16.62C54.42 16.62 53.48 16.8533 52.64 17.32C51.8 17.7867 51.14 18.4333 50.66 19.26C50.1933 20.0733 49.96 20.9867 49.96 22C49.96 23.0133 50.1933 23.9333 50.66 24.76C51.14 25.5733 51.8 26.2133 52.64 26.68C53.48 27.1467 54.42 27.38 55.46 27.38C57.02 27.38 58.3333 26.82 59.4 25.7L60.7 26.96C60.06 27.68 59.28 28.2267 58.36 28.6C57.4533 28.9733 56.4533 29.16 55.36 29.16ZM67.3639 29.12C66.3106 29.12 65.3639 28.8867 64.5239 28.42C63.6839 27.9533 63.0239 27.3133 62.5439 26.5C62.0772 25.6733 61.8439 24.74 61.8439 23.7C61.8439 22.66 62.0772 21.7333 62.5439 20.92C63.0239 20.0933 63.6839 19.4533 64.5239 19C65.3639 18.5333 66.3106 18.3 67.3639 18.3C68.4172 18.3 69.3572 18.5333 70.1839 19C71.0239 19.4533 71.6772 20.0933 72.1439 20.92C72.6239 21.7333 72.8639 22.66 72.8639 23.7C72.8639 24.74 72.6239 25.6733 72.1439 26.5C71.6772 27.3133 71.0239 27.9533 70.1839 28.42C69.3572 28.8867 68.4172 29.12 67.3639 29.12ZM67.3639 27.44C68.0439 27.44 68.6506 27.2867 69.1839 26.98C69.7306 26.66 70.1572 26.22 70.4639 25.66C70.7706 25.0867 70.9239 24.4333 70.9239 23.7C70.9239 22.9667 70.7706 22.32 70.4639 21.76C70.1572 21.1867 69.7306 20.7467 69.1839 20.44C68.6506 20.1333 68.0439 19.98 67.3639 19.98C66.6839 19.98 66.0706 20.1333 65.5239 20.44C64.9906 20.7467 64.5639 21.1867 64.2439 21.76C63.9372 22.32 63.7839 22.9667 63.7839 23.7C63.7839 24.4333 63.9372 25.0867 64.2439 25.66C64.5639 26.22 64.9906 26.66 65.5239 26.98C66.0706 27.2867 66.6839 27.44 67.3639 27.44ZM79.3992 15.62C78.2526 15.62 77.6792 16.24 77.6792 17.48V18.4H80.7592V19.98H77.7192V29H75.7992V19.98H73.9992V18.4H75.7992V17.46C75.7992 16.4067 76.1059 15.5733 76.7192 14.96C77.3326 14.3467 78.1926 14.04 79.2992 14.04C79.7259 14.04 80.1259 14.0933 80.4992 14.2C80.8726 14.3067 81.1926 14.46 81.4592 14.66L80.8792 16.12C80.4392 15.7867 79.9459 15.62 79.3992 15.62ZM86.45 15.62C85.3033 15.62 84.73 16.24 84.73 17.48V18.4H87.81V19.98H84.77V29H82.85V19.98H81.05V18.4H82.85V17.46C82.85 16.4067 83.1567 15.5733 83.77 14.96C84.3833 14.3467 85.2433 14.04 86.35 14.04C86.7767 14.04 87.1767 14.0933 87.55 14.2C87.9233 14.3067 88.2433 14.46 88.51 14.66L87.93 16.12C87.49 15.7867 86.9967 15.62 86.45 15.62ZM99.0445 23.76C99.0445 23.9067 99.0312 24.1 99.0045 24.34H90.4045C90.5245 25.2733 90.9312 26.0267 91.6245 26.6C92.3312 27.16 93.2045 27.44 94.2445 27.44C95.5112 27.44 96.5312 27.0133 97.3045 26.16L98.3645 27.4C97.8845 27.96 97.2845 28.3867 96.5645 28.68C95.8579 28.9733 95.0645 29.12 94.1845 29.12C93.0645 29.12 92.0712 28.8933 91.2045 28.44C90.3379 27.9733 89.6645 27.3267 89.1845 26.5C88.7179 25.6733 88.4845 24.74 88.4845 23.7C88.4845 22.6733 88.7112 21.7467 89.1645 20.92C89.6312 20.0933 90.2645 19.4533 91.0645 19C91.8779 18.5333 92.7912 18.3 93.8045 18.3C94.8179 18.3 95.7179 18.5333 96.5045 19C97.3045 19.4533 97.9245 20.0933 98.3645 20.92C98.8179 21.7467 99.0445 22.6933 99.0445 23.76ZM93.8045 19.92C92.8845 19.92 92.1112 20.2 91.4845 20.76C90.8712 21.32 90.5112 22.0533 90.4045 22.96H97.2045C97.0979 22.0667 96.7312 21.34 96.1045 20.78C95.4912 20.2067 94.7245 19.92 93.8045 19.92ZM111.291 23.76C111.291 23.9067 111.277 24.1 111.251 24.34H102.651C102.771 25.2733 103.177 26.0267 103.871 26.6C104.577 27.16 105.451 27.44 106.491 27.44C107.757 27.44 108.777 27.0133 109.551 26.16L110.611 27.4C110.131 27.96 109.531 28.3867 108.811 28.68C108.104 28.9733 107.311 29.12 106.431 29.12C105.311 29.12 104.317 28.8933 103.451 28.44C102.584 27.9733 101.911 27.3267 101.431 26.5C100.964 25.6733 100.731 24.74 100.731 23.7C100.731 22.6733 100.957 21.7467 101.411 20.92C101.877 20.0933 102.511 19.4533 103.311 19C104.124 18.5333 105.037 18.3 106.051 18.3C107.064 18.3 107.964 18.5333 108.751 19C109.551 19.4533 110.171 20.0933 110.611 20.92C111.064 21.7467 111.291 22.6933 111.291 23.76ZM106.051 19.92C105.131 19.92 104.357 20.2 103.731 20.76C103.117 21.32 102.757 22.0533 102.651 22.96H109.451C109.344 22.0667 108.977 21.34 108.351 20.78C107.737 20.2067 106.971 19.92 106.051 19.92ZM115.083 16.74H110.283V15H121.863V16.74H117.063V29H115.083V16.74ZM132.248 23.76C132.248 23.9067 132.234 24.1 132.208 24.34H123.608C123.728 25.2733 124.134 26.0267 124.828 26.6C125.534 27.16 126.408 27.44 127.448 27.44C128.714 27.44 129.734 27.0133 130.508 26.16L131.568 27.4C131.088 27.96 130.488 28.3867 129.768 28.68C129.061 28.9733 128.268 29.12 127.388 29.12C126.268 29.12 125.274 28.8933 124.408 28.44C123.541 27.9733 122.868 27.3267 122.388 26.5C121.921 25.6733 121.688 24.74 121.688 23.7C121.688 22.6733 121.914 21.7467 122.368 20.92C122.834 20.0933 123.468 19.4533 124.268 19C125.081 18.5333 125.994 18.3 127.008 18.3C128.021 18.3 128.921 18.5333 129.708 19C130.508 19.4533 131.128 20.0933 131.568 20.92C132.021 21.7467 132.248 22.6933 132.248 23.76ZM127.008 19.92C126.088 19.92 125.314 20.2 124.688 20.76C124.074 21.32 123.714 22.0533 123.608 22.96H130.408C130.301 22.0667 129.934 21.34 129.308 20.78C128.694 20.2067 127.928 19.92 127.008 19.92ZM138.481 18.3C139.947 18.3 141.067 18.66 141.841 19.38C142.627 20.1 143.021 21.1733 143.021 22.6V29H141.201V27.6C140.881 28.0933 140.421 28.4733 139.821 28.74C139.234 28.9933 138.534 29.12 137.721 29.12C136.534 29.12 135.581 28.8333 134.861 28.26C134.154 27.6867 133.801 26.9333 133.801 26C133.801 25.0667 134.141 24.32 134.821 23.76C135.501 23.1867 136.581 22.9 138.061 22.9H141.101V22.52C141.101 21.6933 140.861 21.06 140.381 20.62C139.901 20.18 139.194 19.96 138.261 19.96C137.634 19.96 137.021 20.0667 136.421 20.28C135.821 20.48 135.314 20.7533 134.901 21.1L134.101 19.66C134.647 19.22 135.301 18.8867 136.061 18.66C136.821 18.42 137.627 18.3 138.481 18.3ZM138.041 27.64C138.774 27.64 139.407 27.48 139.941 27.16C140.474 26.8267 140.861 26.36 141.101 25.76V24.28H138.141C136.514 24.28 135.701 24.8267 135.701 25.92C135.701 26.4533 135.907 26.8733 136.321 27.18C136.734 27.4867 137.307 27.64 138.041 27.64Z" fill="black"/>
<path d="M18.9933 21.498C14.5674 30.8087 16.2607 38.6062 10.4753 36.8667C4.68994 35.1273 3.58792 26.1693 8.01387 16.8586C12.4398 7.54784 20.7177 1.41011 26.5031 3.14958C32.2885 4.88904 23.4193 12.1873 18.9933 21.498Z" fill="#5A392E"/>
</svg>
